<?xml version="1.0" encoding="utf-8"?>
<!-- Generator: Adobe Illustrator 20.1.0, SVG Export Plug-In . SVG Version: 6.00 Build 0)  -->
<svg version="1.1" id="Capa_1" xmlns="http://www.w3.org/2000/svg" xmlns:xlink="http://www.w3.org/1999/xlink" x="0px" y="0px"
	 viewBox="0 0 1179.5 290.3" style="enable-background:new 0 0 1179.5 290.3;" xml:space="preserve">
<style type="text/css">
	.st0{fill-rule:evenodd;clip-rule:evenodd;fill:#FFFFFF;}
	.st1{fill:#FFFFFF;}
</style>
<g>
	<g>
		<path class="st0" d="M68,29.7c-11.7,0-20.8,3.5-28,10.3c-7,6.7-10.6,15.1-10.6,25.8c0,12.1,3.6,20.7,10.2,26.7
			c7.2,6.4,14.7,9.3,22.6,9.3h23v27.8h-23c-17.6,0-32.6-6.1-44.4-18.3C5.9,98.9,0,83.6,0,65.7c0-16.7,6.3-31.5,18.5-44.3
			C31,8.4,47.1,1.9,66.4,1.9h18.8v27.7H68z"/>
		<path class="st0" d="M207.2,19.2c13.1,12.6,19.8,28.3,19.8,46.5c0,18.2-6.6,33.9-19.6,46.7c-12.9,12.7-28.6,19.1-46.8,19.1
			c-18,0-33.7-6.4-46.8-19c-13-12.8-19.6-28.5-19.6-46.7c0-18.2,6.5-33.9,19.5-46.5C126.6,6.4,142.4,0,160.6,0
			C178.5,0,194.2,6.5,207.2,19.2z M186.9,92.7c7.1-7.4,10.7-16.3,10.7-27c0-10.6-3.6-19.4-10.7-26.9c-6.9-7.4-15.6-11.1-26.3-11.1
			c-10.8,0-19.4,3.7-26.5,11c-7,7.4-10.5,16.3-10.5,27c0,10.6,3.5,19.5,10.6,27c7,7.3,15.7,10.9,26.4,10.9
			C171.3,103.7,179.9,100,186.9,92.7z"/>
		<path class="st0" d="M268.7,51.9h12.1c6.2,0,10.4-1.4,13.2-3.4c2.3-1.7,3.8-4.2,3.8-8.8c0-3.6-1.2-6.2-3.6-8.4
			c-2.6-2.4-5.7-3.5-9.6-3.5c-5.1,0-8.8,1.5-11.7,4.3c-2.7,2.6-4.2,6-4.2,11V51.9z M240,47.5c0-13.9,3.8-25.6,12.1-34.4
			c8.3-8.8,19.4-13,32.4-13c11.7,0,21.9,3.7,29.9,11.3c7.9,7.5,12,17,12,27.8c0,6.6-1.2,12.7-3.8,18c-1.2,2.4-2.7,4.5-4.5,6.5
			c2.2,1.8,4,3.8,5.5,6.1c3.5,5.3,4.7,12.8,4.7,21.3v38.5h-28.7v-38c0-4.5-1.3-7.2-3-8.9c-1.6-1.6-4.8-3-11-3h-16.9v49.9H240V47.5z"
			/>
		<path class="st0" d="M372.4,58.7H388c4.6,0,7.9-1.4,10.4-3.9c2.5-2.5,4.1-6.1,4.1-11.4c0-5.2-1.6-8.8-4.3-11.3
			c-2.7-2.7-6.3-4.3-11.2-4.3c-4.6,0-8,1.5-10.6,4.3c-2.4,2.6-4,6.5-4,12.5V58.7z M343.6,46.5c0-13.4,4-24.8,12.5-33.5
			c8.3-8.6,18.7-13,30.7-13c12.8,0,23.7,4.2,32,12.8c8.2,8.5,12.3,18.8,12.3,30.6c0,11.6-3.6,21.8-11,30.2
			c-7.4,8.5-16.8,12.9-27.9,12.9h-20.1v43.1h-28.7V46.5z"/>
		<path class="st0" d="M553.8,19.2c13.1,12.6,19.8,28.3,19.8,46.5c0,18.2-6.6,33.9-19.6,46.7c-12.9,12.7-28.6,19.1-46.8,19.1
			c-18,0-33.7-6.4-46.8-19c-13-12.8-19.6-28.5-19.6-46.7c0-18.2,6.5-33.9,19.5-46.5C473.2,6.4,489,0,507.2,0
			C525.2,0,540.8,6.5,553.8,19.2z M533.5,92.7c7.1-7.4,10.7-16.3,10.7-27c0-10.6-3.6-19.4-10.7-26.9c-6.9-7.4-15.6-11.1-26.3-11.1
			c-10.8,0-19.4,3.7-26.5,11c-7,7.4-10.5,16.3-10.5,27c0,10.6,3.5,19.5,10.6,27c7,7.3,15.7,10.9,26.4,10.9
			C517.9,103.7,526.5,100,533.5,92.7z"/>
		<path class="st0" d="M613.5,51.9h12.1c6.3,0,10.4-1.4,13.2-3.4c2.3-1.7,3.8-4.2,3.8-8.8c0-3.6-1.2-6.2-3.6-8.4
			c-2.6-2.4-5.7-3.5-9.6-3.5c-5.1,0-8.8,1.5-11.6,4.3c-2.6,2.6-4.2,6-4.2,11V51.9z M584.7,47.5c0-13.9,3.8-25.6,12.1-34.4
			c8.3-8.8,19.4-13,32.4-13c11.7,0,21.9,3.7,29.9,11.3c7.9,7.5,12,17,12,27.8c0,6.6-1.2,12.7-3.8,18c-1.2,2.4-2.7,4.5-4.5,6.5
			c2.2,1.8,4,3.8,5.5,6.1c3.5,5.3,4.7,12.8,4.7,21.3v38.5h-28.7v-38c0-4.5-1.3-7.2-3-8.9c-1.6-1.6-4.8-3-11-3h-16.9v49.9h-28.7V47.5
			z"/>
		<path class="st0" d="M716.9,49.9h33.9c0-7.7-1.9-13.4-4.9-16.8c-2.9-3.5-6.7-5.3-12-5.3c-5.4,0-9.3,1.8-12.2,5.2
			c-2.9,3.4-4.7,8.6-4.7,16.5V49.9z M688.2,50.4c0-14.6,4-26.9,12.7-36.3c8.6-9.4,19.8-14.1,33-14.1c13.1,0,24.2,4.7,32.8,14.1
			c8.8,9.4,12.9,21.7,12.9,36.3v79.1h-28.7V77.6h-33.9v51.9h-28.7V50.4z"/>
		<path class="st0" d="M860.8,29.7c-11.7,0-20.8,3.5-28,10.3c-7.1,6.7-10.6,15.1-10.6,25.8c0,12.1,3.6,20.7,10.2,26.7
			c7.2,6.4,14.7,9.3,22.6,9.3h23v27.8h-23c-17.6,0-32.5-6.1-44.4-18.3c-11.8-12.2-17.7-27.5-17.7-45.4c0-16.7,6.3-31.5,18.5-44.3
			c12.5-13.1,28.7-19.5,47.9-19.5H878v27.7H860.8z"/>
		<rect x="893.7" y="1.9" class="st0" width="28.7" height="127.6"/>
		<path class="st0" d="M1050.7,19.2c13.1,12.6,19.8,28.3,19.8,46.5c0,18.2-6.6,33.9-19.6,46.7c-12.9,12.7-28.6,19.1-46.8,19.1
			c-18,0-33.7-6.4-46.8-19c-13-12.8-19.6-28.5-19.6-46.7c0-18.2,6.5-33.9,19.5-46.5C970.2,6.4,986,0,1004.1,0
			C1022.1,0,1037.8,6.5,1050.7,19.2z M1030.4,92.7c7.1-7.4,10.7-16.3,10.7-27c0-10.6-3.6-19.4-10.7-26.9
			c-6.9-7.4-15.6-11.1-26.3-11.1c-10.8,0-19.4,3.7-26.5,11c-7,7.4-10.5,16.3-10.5,27c0,10.6,3.5,19.5,10.6,27
			c7,7.3,15.7,10.9,26.4,10.9C1014.9,103.7,1023.5,100,1030.4,92.7z"/>
		<path class="st0" d="M1083.6,21.7c0-5.8,1.5-11.4,5.7-15.5c3.9-3.7,9-5.3,14.4-5.3c6.2,0,12.3,1.9,16,7.4
			c2.2,3.2,4.7,7.7,7.4,13.1l24.1,49.8l0.3-69.4h28.7v110.9c0,4.7-1.4,9.3-4.9,12.7c-3.7,3.7-8.6,4.9-13.5,4.9
			c-4.5,0-9.1-1-12.8-3.4c-3.2-2.5-6-6.8-8.4-11.4l-28-57.6l-0.3,71.4h-28.7V21.7z"/>
	</g>
	<g>
		<path class="st0" d="M574.1,182.4c12.2,11.7,18.3,26.2,18.3,43.1c0,16.9-6.1,31.4-18.2,43.2c-11.9,11.7-26.5,17.6-43.3,17.6
			c-16.6,0-31.2-5.9-43.3-17.6c-12.1-11.8-18.2-26.4-18.2-43.2c0-16.9,6-31.3,18-43.1c12-11.8,26.6-17.8,43.4-17.8
			C547.6,164.6,562.1,170.6,574.1,182.4z M555.3,250.4c6.6-6.8,9.9-15.1,9.9-25c0-9.8-3.3-18-9.9-24.9c-6.4-6.9-14.4-10.3-24.4-10.3
			c-10,0-18,3.4-24.5,10.2c-6.5,6.9-9.7,15.1-9.7,25c0,9.8,3.2,18.1,9.8,25c6.5,6.8,14.5,10.1,24.5,10.1
			C540.9,260.6,548.9,257.2,555.3,250.4z"/>
		<path class="st0" d="M33.6,258.8h7.5c8.2,0,15-3,20.8-9.3c5.8-6.3,8.8-14.1,8.8-24c0-10.2-3.3-18-9.6-24
			c-6.3-6.1-14.5-9.3-25.1-9.3h-2.4V258.8z M7,166.4h32.9c16.4,0,30.4,5.8,41.5,17.5c11,11.5,16.5,25.5,16.5,41.6
			c0,16-5.6,29.9-16.7,41.6c-11.1,11.6-25,17.5-41.3,17.5h-6.3h-6.3H7V166.4z"/>
		<path class="st0" d="M135.1,236.5c1.2,5.1,4.1,9.7,8.7,13.8c6.6,5.8,13.8,8.6,21.7,8.6h19.9v25.7h-17.4
			c-17.2,0-31.9-5.5-43.6-16.7c-11.5-11.3-17.3-25.6-17.3-42.3c0-16.6,5.8-30.7,17.3-42c11.6-11.4,26.3-17,43.6-17h17.4v25.7h-15.7
			c-11.2,0-19.7,3.1-26,8.9c-3.9,3.7-6.3,6.9-7.8,9.8h49.4v25.7H135.1z"/>
		<path class="st0" d="M248.2,181.2c0.6-4.7,2.4-8.9,6-12.1c3.4-2.9,7.4-4.5,11.9-4.5c4.3,0,8.5,1.1,11.9,4
			c3.5,2.9,5.6,7.7,7.2,12.7l15.5,51.6l15.8-51.6c1.5-5,3.6-9.8,6.8-12.6c3.4-2.9,7.8-4.1,12.2-4.1c4.4,0,8.4,1.6,11.8,4.5
			c3.7,3.1,5.6,7.4,6.2,12.2l13.1,103.2h-27.3l-7.3-62.3L317.7,268c-1.5,5-3.3,9.7-5.8,12.4c-3,3-7,4-10.8,4
			c-3.9,0-7.9-1.1-10.9-4.1c-2.7-2.7-4.6-7.4-6.1-12.4L270,222.2l-7.6,62.3h-27.3L248.2,181.2z"/>
		<path class="st0" d="M401.1,210.8h31.4c0-7.2-1.8-12.4-4.6-15.6c-2.6-3.2-6.2-4.9-11.1-4.9c-5,0-8.6,1.7-11.3,4.8
			c-2.6,3.2-4.4,8-4.4,15.3V210.8z M374.5,211.3c0-13.5,3.7-24.9,11.8-33.6c8-8.7,18.3-13,30.5-13c12.1,0,22.4,4.3,30.4,13
			c8.1,8.6,11.9,20.1,11.9,33.6v73.2h-26.6v-48h-31.4v48h-26.6V211.3z"/>
		<path class="st0" d="M630.6,242c0,6.6,1.5,11.2,4,14.3c2.1,2.6,5.3,4.3,10.5,4.3c5.1,0,8.3-1.6,10.5-4.5c2.5-3.2,4.1-7.7,4.1-14.1
			v-75.6h26.6v77.2c0,11.8-3.9,22-11.8,30.2c-7.9,8.3-17.9,12.5-29.4,12.5c-11.5,0-21.5-4.1-29.4-12.3c-7.8-8.3-11.7-18.6-11.7-30.4
			v-77.2h26.6V242z"/>
		<rect x="704.2" y="166.4" class="st0" width="26.6" height="118.1"/>
		<path class="st0" d="M749.1,184.7c0-5.4,1.3-10.6,5.2-14.3c3.6-3.5,8.3-4.9,13.3-4.9c5.8,0,11.4,1.7,14.8,6.8
			c2,3,4.4,7.1,6.9,12.2l22.3,46.1l0.2-64.2h26.6v102.7c0,4.4-1.3,8.6-4.5,11.8c-3.4,3.4-8,4.5-12.5,4.5c-4.2,0-8.5-0.9-11.8-3.1
			c-2.9-2.3-5.6-6.3-7.8-10.5l-25.9-53.3l-0.2,66.1h-26.6V184.7z"/>
		<path class="st0" d="M879.7,210.8h31.4c0-7.2-1.8-12.4-4.6-15.6c-2.6-3.2-6.2-4.9-11.1-4.9c-5,0-8.6,1.7-11.3,4.8
			c-2.7,3.2-4.4,8-4.4,15.3V210.8z M853.1,211.3c0-13.5,3.7-24.9,11.7-33.6c8-8.7,18.3-13,30.5-13c12.1,0,22.4,4.3,30.4,13
			c8.1,8.6,11.9,20.1,11.9,33.6v73.2h-26.6v-48h-31.4v48h-26.6V211.3z"/>
		<path class="st0" d="M978.8,212.6H990c5.8,0,9.6-1.3,12.2-3.2c2.1-1.5,3.5-3.9,3.5-8.1c0-3.4-1.1-5.8-3.4-7.8
			c-2.4-2.2-5.3-3.3-8.8-3.3c-4.7,0-8.2,1.4-10.8,4c-2.5,2.4-3.9,5.6-3.9,10.2V212.6z M952.2,208.5c0-12.8,3.5-23.7,11.2-31.9
			c7.7-8.2,17.9-12.1,30-12.1c10.8,0,20.2,3.4,27.7,10.5c7.3,7,11.1,15.7,11.1,25.8c0,6.1-1.1,11.8-3.5,16.6c-1.1,2.2-2.5,4.2-4.1,6
			c2,1.6,3.7,3.5,5.1,5.6c3.2,5,4.3,11.9,4.3,19.7v35.6h-26.6v-35.2c0-4.2-1.2-6.7-2.8-8.2c-1.5-1.5-4.5-2.8-10.2-2.8h-15.7v46.2
			h-26.6V208.5z"/>
		<rect x="1051.8" y="166.4" class="st0" width="26.6" height="118.1"/>
		<path class="st0" d="M1121.6,210.8h31.4c0-7.2-1.8-12.4-4.6-15.6c-2.6-3.2-6.2-4.9-11.1-4.9c-5,0-8.6,1.7-11.3,4.8
			c-2.6,3.2-4.4,8-4.4,15.3V210.8z M1095,211.3c0-13.5,3.7-24.9,11.7-33.6c8-8.7,18.3-13,30.5-13c12.1,0,22.4,4.3,30.4,13
			c8.1,8.6,11.9,20.1,11.9,33.6v73.2H1153v-48h-31.4v48H1095V211.3z"/>
		<polygon class="st1" points="575.3,290.3 548,263.1 569.4,241.7 596.6,269 		"/>
	</g>
</g>
</svg>
